<?xml version="1.0" standalone="no"?>
<!DOCTYPE svg PUBLIC "-//W3C//DTD SVG 20010904//EN"
 "http://www.w3.org/TR/2001/REC-SVG-20010904/DTD/svg10.dtd">
<svg version="1.0" xmlns="http://www.w3.org/2000/svg"
 width="1080.000000pt" height="1080.000000pt" viewBox="0 0 1080.000000 1080.000000"
 preserveAspectRatio="xMidYMid meet">
<metadata>
Created by potrace 1.16, written by Peter Selinger 2001-2019
</metadata>
<g transform="translate(0.000000,1080.000000) scale(0.100000,-0.100000)"
fill="#000000" stroke="none">
<path d="M0 5400 l0 -5400 5400 0 5400 0 0 5400 0 5400 -5400 0 -5400 0 0
-5400z m4019 328 c-1 -7 2 -21 6 -32 5 -11 3 -26 -3 -37 -7 -10 -12 -25 -12
-32 0 -7 -9 -32 -20 -55 -11 -23 -22 -59 -23 -80 -1 -20 -5 -40 -10 -43 -13
-9 -29 -223 -17 -227 5 -2 10 -14 10 -27 0 -26 125 -159 140 -150 6 4 10 -1
10 -9 0 -9 4 -16 9 -16 5 0 16 -6 23 -13 7 -7 25 -20 41 -30 15 -10 27 -22 27
-28 0 -6 -4 -7 -10 -4 -18 11 -10 -1 16 -26 l27 -24 -12 23 c-15 27 -4 46 10
19 6 -9 17 -17 24 -17 8 0 15 -7 15 -15 0 -13 32 -21 63 -16 5 1 6 -2 3 -7 -3
-5 -29 -5 -58 -2 -29 4 -56 6 -60 3 -5 -2 -8 2 -8 10 0 8 -7 17 -15 21 -8 3
-19 16 -24 29 -7 18 -16 22 -48 22 -38 0 -39 0 -36 33 2 26 -2 35 -20 41 -12
5 -29 6 -37 4 -13 -4 -13 -4 0 6 8 5 11 13 7 17 -3 4 -14 1 -23 -7 -14 -11
-16 -10 -14 6 4 40 -1 52 -25 63 -14 6 -25 18 -25 27 0 8 -6 15 -13 15 -16 0
-22 139 -9 217 6 35 5 56 -2 63 -8 8 -6 9 8 4 15 -6 17 -3 12 14 -4 11 -2 23
4 27 5 3 10 18 10 33 l-1 27 -15 -30 c-8 -16 -12 -21 -8 -10 3 11 8 35 11 53
5 30 23 46 23 20 0 -8 5 -7 15 3 8 8 16 33 18 56 1 22 5 39 10 36 4 -2 7 1 7
6 0 6 -4 11 -9 11 -6 0 -9 9 -8 20 1 11 5 20 10 20 4 0 7 -6 6 -12z m-261
-113 c-1 -13 -6 -21 -11 -18 -15 9 -26 -19 -21 -52 4 -24 3 -26 -5 -10 -8 17
-10 15 -12 -15 -1 -19 -1 -46 0 -60 1 -18 -1 -21 -7 -12 -16 24 -23 -16 -23
-132 0 -99 3 -114 27 -163 15 -29 31 -53 35 -53 5 0 6 -13 3 -30 -4 -19 -2
-30 5 -30 6 0 11 -6 11 -14 0 -8 7 -16 15 -20 8 -3 15 -15 15 -26 0 -18 10
-25 32 -21 4 0 5 -6 2 -13 -3 -9 3 -17 16 -21 12 -4 25 -18 31 -31 5 -14 13
-22 19 -19 5 3 10 1 10 -5 0 -6 4 -8 10 -5 6 3 7 -1 4 -9 -5 -14 -9 -13 -30 2
-13 9 -24 22 -24 27 -1 6 -20 26 -43 45 -77 63 -172 290 -153 365 4 14 1 25
-7 28 -8 4 -9 8 -2 14 6 4 12 26 14 49 1 22 13 83 26 135 14 54 20 95 15 97
-15 5 -12 22 4 22 8 0 17 -8 19 -17 3 -13 5 -12 6 5 0 13 5 20 11 17 5 -3 9
-17 8 -30z m972 -4275 l0 -230 -80 0 -80 0 0 230 0 230 80 0 80 0 0 -230z
m1340 220 c0 -6 34 -106 75 -223 41 -116 75 -216 75 -220 0 -4 -32 -7 -72 -5
-68 3 -73 5 -78 28 -6 24 -10 25 -82 28 l-76 3 -10 -30 c-10 -28 -13 -29 -81
-33 -48 -2 -71 1 -71 8 0 6 34 105 75 220 42 115 78 215 80 222 5 15 165 17
165 2z m-765 -142 l0 -73 73 -3 72 -3 0 -39 0 -39 -72 -3 -73 -3 3 -30 c1 -16
0 -49 -3 -73 l-6 -43 -42 3 -42 3 0 70 -1 70 -72 3 -72 3 0 42 0 42 71 0 72 0
0 73 0 72 46 0 46 0 0 -72z"/>
</g>
</svg>
